<svg id="female" enable-background="new 0 0 300 300" height="512" viewBox="0 0 300 300" width="512" xmlns="http://www.w3.org/2000/svg"><g><circle cx="130" cy="141.998" fill="#efefd2" r="92"/><g fill="#4c241d"><path d="m248.53 55.998c0 2.502-2.028 4.53-4.53 4.53s-4.53-2.028-4.53-4.53 2.028-4.53 4.53-4.53c2.502.001 4.53 2.029 4.53 4.53z"/><path d="m56.53 103.998c0 2.502-2.028 4.53-4.53 4.53s-4.53-2.028-4.53-4.53 2.028-4.53 4.53-4.53c2.502.001 4.53 2.029 4.53 4.53z"/><path d="m242.652 119.346c-1.023 0-2.047-.391-2.828-1.172-1.562-1.562-1.562-4.094 0-5.656l14.695-14.695c1.562-1.562 4.094-1.562 5.656 0s1.562 4.094 0 5.656l-14.695 14.695c-.781.781-1.804 1.172-2.828 1.172z"/><path d="m257.348 119.346c-1.023 0-2.047-.391-2.828-1.172l-14.695-14.695c-1.562-1.562-1.562-4.094 0-5.656s4.094-1.562 5.656 0l14.695 14.695c1.562 1.562 1.562 4.094 0 5.656-.781.781-1.805 1.172-2.828 1.172z"/></g><g><path d="m158.641 30.057c-19.786-.878-37.504 8.162-48.605 22.566-4.726 6.132-7.822 13.36-9.659 20.88-1.169 4.788-2.377 10.66-2.377 14.495v114h116v-112.462c0-31.274-24.115-58.093-55.359-59.479z" fill="#bf7e68"/><path d="m214 205.998h-116c-2.209 0-4-1.791-4-4v-114c0-3.484.838-8.68 2.492-15.443 2.113-8.654 5.604-16.182 10.375-22.373 12.33-15.998 31.713-25.004 51.951-24.121 33.186 1.473 59.182 29.353 59.182 63.475v112.463c0 2.208-1.791 3.999-4 3.999zm-112-8h108v-108.462c0-29.828-22.637-54.199-51.537-55.482-17.539-.762-34.518 7.076-45.26 21.012-4.084 5.303-7.092 11.826-8.941 19.389-1.479 6.055-2.262 10.739-2.262 13.543z" fill="#4c241d"/></g><g><path d="m204.224 170.828-11.858-5.39-38.366-17.44-38.364 17.438-11.86 5.391c-13.242 6.019-21.776 19.45-21.776 34.27v.902h144v-.902c0-14.82-8.534-28.251-21.776-34.269z" fill="#ffce56"/><path d="m226 209.998h-144c-2.209 0-4-1.791-4-4v-.902c0-16.371 9.469-31.25 24.121-37.91l50.225-22.828c1.051-.48 2.258-.48 3.309 0l50.225 22.828c14.652 6.66 24.121 21.539 24.121 37.91v.902c-.001 2.209-1.792 4-4.001 4zm-139.859-8h135.719c-1.084-11.992-8.414-22.586-19.289-27.527 0-.002 0-.002-.002-.002l-48.569-22.076-48.568 22.076c-10.877 4.943-18.207 15.537-19.291 27.529z" fill="#4c241d"/></g><g><path d="m154 173.998c-8.836 0-16-7.164-16-16v-24h32v24c0 8.837-7.164 16-16 16z" fill="#e7d1c4"/><path d="m154 177.998c-11.027 0-20-8.973-20-20v-24c0-2.209 1.791-4 4-4h32c2.209 0 4 1.791 4 4v24c0 11.028-8.973 20-20 20zm-12-40v20c0 6.617 5.383 12 12 12s12-5.383 12-12v-20z" fill="#4c241d"/></g><g><path d="m210.123 88.89c-24.123 13.108-83.905-12.189-86.095-32.112l-.383.034c1.405 29.27-21.645 32.022-21.645 32.022-3.635 1.589-6.145 5.274-5.994 9.53.114 3.199 2.082 6.09 4.734 7.88 3.217 2.171 5.98 2.017 8.432 1.192 3.968 19.359 18.022 35.548 37.427 41.794 5.564 1.791 11.581 1.62 17.141-.182l1.775-.575c19.093-6.188 33.023-22.039 37.174-41.08 2.441.862 5.222 1.012 8.371-.95 2.549-1.588 4.495-4.194 4.862-7.174.564-4.583-1.977-8.646-5.799-10.379z" fill="#e7d1c4"/><path d="m154.754 154.5c-3.195 0-6.35-.488-9.379-1.461-19.201-6.184-33.936-21.715-39.223-41.039-2.627.08-5.174-.768-7.648-2.439-3.914-2.643-6.342-6.773-6.496-11.053-.203-5.789 3.09-11.023 8.391-13.34.359-.156.738-.26 1.127-.307.768-.1 19.326-2.836 18.125-27.857-.102-2.139 1.498-3.979 3.631-4.174 2.209-.193 4.486 1.344 4.725 3.51.645 5.879 8.963 13.67 21.705 20.332 18.408 9.625 45.168 15.949 58.502 8.703 1.1-.602 2.422-.645 3.562-.129 5.611 2.545 8.871 8.377 8.117 14.51-.494 4.002-3.006 7.771-6.721 10.084-2.414 1.504-4.906 2.24-7.52 2.15-5.443 18.932-20.055 34.178-38.902 40.287l-1.779.576c-3.385 1.097-6.825 1.647-10.217 1.647zm-45.582-51.064c.693 0 1.381.18 1.994.533.994.57 1.693 1.541 1.924 2.664 3.738 18.23 17.047 33.096 34.736 38.791 4.633 1.486 9.715 1.426 14.68-.182l1.779-.576c17.377-5.633 30.596-20.242 34.496-38.125.244-1.121.959-2.084 1.961-2.643s2.197-.658 3.277-.277c1.816.639 3.242.475 4.924-.572 1.684-1.049 2.809-2.645 3.008-4.27.254-2.064-.541-4.045-2.047-5.336-16.955 7.424-44.621.398-63.898-9.682-8.363-4.373-14.965-9.197-19.43-14.084-4.322 18.225-19.74 22.291-23.346 22.998-2.055 1.066-3.311 3.201-3.227 5.547.061 1.703 1.201 3.508 2.975 4.707 1.947 1.312 3.377 1.238 4.918.715.416-.14.846-.208 1.276-.208z" fill="#4c241d"/></g><path d="m154 133.998c-2.916 0-5.729-1.061-7.92-2.984-1.66-1.457-1.824-3.984-.367-5.645 1.459-1.66 3.984-1.82 5.645-.367 1.596 1.4 4.193 1.248 5.607-.32 1.482-1.637 4.01-1.77 5.65-.287 1.639 1.482 1.768 4.012.287 5.65-2.271 2.512-5.515 3.953-8.902 3.953z" fill="#4c241d"/><circle cx="176" cy="107.998" fill="#4c241d" r="4"/><circle cx="136" cy="107.998" fill="#4c241d" r="4"/><g><path d="m226 269.998h-144l-8-96h160z" fill="#fff"/><path d="m226 273.998h-144c-2.08 0-3.812-1.594-3.986-3.668l-8-96c-.092-1.115.285-2.217 1.043-3.041.758-.822 1.824-1.291 2.943-1.291h160c1.119 0 2.186.469 2.943 1.291.758.824 1.135 1.926 1.043 3.041l-8 96c-.174 2.075-1.906 3.668-3.986 3.668zm-140.32-8h136.64l7.332-88h-151.304z" fill="#4c241d"/></g><circle cx="154" cy="221.998" fill="#d6d6d6" r="12"/><path d="m64 69.998c-7.719 0-14-6.281-14-14s6.281-14 14-14 14 6.281 14 14-6.281 14-14 14zm0-20c-3.309 0-6 2.691-6 6s2.691 6 6 6 6-2.691 6-6-2.691-6-6-6z" fill="#4c241d"/><path d="m258 273.998h-212c-2.209 0-4-1.791-4-4s1.791-4 4-4h212c2.209 0 4 1.791 4 4s-1.791 4-4 4z" fill="#4c241d"/></g></svg>