<svg id="_Layer_" data-name="&lt;Layer&gt;" xmlns="http://www.w3.org/2000/svg" viewBox="0 0 3116 1640"><defs><style>.cls-1{fill:#fff;}.cls-2{fill:#fcecdb;}.cls-3{fill:#599dad;}.cls-4{fill:#6bb7bf;}.cls-5{fill:#86d1cd;}.cls-6{fill:#efcbab;}.cls-7{fill:#ffebdc;}.cls-8{fill:#efcdaf;}.cls-9{fill:#163560;}.cls-10{fill:#e49963;}.cls-11{fill:#ed7d2b;}.cls-12{fill:#5aa9ad;}.cls-13{fill:#f99746;}.cls-14{fill:#d68d5d;}.cls-15{fill:#4a75cb;}.cls-16{fill:#2b478b;}.cls-17{fill:#233862;}.cls-18{fill:#ffb27d;}.cls-19{fill:#2c3a64;}.cls-20{fill:#ed985f;}.cls-21{fill:#f9ddbf;}.cls-22{fill:#c6916d;}.cls-23{fill:#eac3a0;}.cls-24{fill:#e0b594;}.cls-25{fill:#d39e7a;}.cls-26{fill:#f4a269;}.cls-27{fill:#c65447;}.cls-28{fill:#1c468a;}.cls-29{fill:#b5453c;}.cls-30{fill:#9e332e;}.cls-31{fill:#dd6d22;}.cls-32{fill:#2e3552;}</style></defs><title>user-image</title><rect class="cls-1" width="3116" height="1640"/><path class="cls-2" d="M317.67,1408.78s-152.84-377.9,70.75-603.55c288.4-291,661.08-47.76,800.92-54.86S1337.05,464,1754.88,430.67c323.06-25.79,853.62-27.82,740.43,428.43-86,346.88,392.75,167.2,299.52,550.41Z"/><path class="cls-3" d="M786.24,1178.25s-36.36-42.43-2.24-69.37c0,0,24.92-15.09,45.25-13.87,0,0-28.8,48.29-19.48,53.09S838,1092,838,1092s56.72-5.5,75,3.27c0,0-48.49,39.68-38.28,42s62.59-36.58,62.59-36.58,52.79,9,50,41.19-21,42.14-29,41.29-54.76-18.71-55.77-12.16,27.13,28,46.84,29c0,0-37.22,41-61.95,29.2s-26.85-30.62-42.27-37.67-28.58-7-22.21.16,34.27,14.16,43.09,29.76,16.72,26.12-8.87,22.27-67.19-22.58-69-44Z"/><path class="cls-3" d="M961.28,1142.77s-143.37-5.53-175,35.48c0,0-7,21-28.55,40.06l-3.36,9.16s24.85-26.2,33.74-27.78C788.07,1199.69,774.17,1148.89,961.28,1142.77Z"/><path class="cls-3" d="M757.69,1218.31s-30.77,22.77-32.91,63.43l5.59.5s9.82-42,27.59-58.49S757.69,1218.31,757.69,1218.31Z"/><path class="cls-4" d="M659.1,1124.89S717,1092.5,690,1048.54c0,0-21.59-27-44.73-33.94,0,0,12.34,65.56,0,67.1s-8.49-74-8.49-74-60.93-29.31-84.84-27c0,0,37.8,64,25.46,62.48s-54.76-66.33-54.76-66.33-62.48-11.57-72.5,25.45,6.17,55.53,15.42,57.85,68.64,1.54,67.1,9.25-41.65,20.05-64,13.11c0,0,24.68,60.93,57.07,57.85s42.42-23.14,62.47-24.68,34.71,3.85,24.69,9.25-44,1.77-60.16,15.54-29.31,22.26.77,28.43,84.07,2.31,94.86-20.83Z"/><path class="cls-4" d="M478.62,1013.83s162,52.45,180.48,111.06c0,0-.77,26.23,15.43,56.31v11.57s-17-39.34-26.23-44.74C648.3,1148,684.55,1097.13,478.62,1013.83Z"/><path class="cls-4" d="M674.53,1181.2s25,37.93,10.74,84.1l-6.43-1.73s6.24-50.85-6.83-76.43S674.53,1181.2,674.53,1181.2Z"/><path class="cls-5" d="M751.13,1080.22s-76.25-42.7-40.67-100.65c0,0,28.47-35.59,59-44.74,0,0-16.27,86.42,0,88.45s11.18-97.6,11.18-97.6,80.32-38.63,111.84-35.58c0,0-49.82,84.38-33.55,82.35S931.08,885,931.08,885s82.36-15.25,95.57,33.55-8.13,73.21-20.33,76.26-90.49,2-88.45,12.2,54.9,26.43,84.38,17.28c0,0-32.53,80.32-75.23,76.25s-55.92-30.5-82.36-32.53-45.75,5.08-32.53,12.2,58,2.33,79.3,20.48,38.64,29.34-1,37.47-110.82,3-125.06-27.45Z"/><path class="cls-4" d="M989,933.81s-213.5,69.14-237.9,146.41c0,0,1,34.57-20.33,74.22v15.25s22.36-51.86,34.56-59C765.36,1110.72,717.58,1043.62,989,933.81Z"/><path class="cls-4" d="M730.8,1154.44s-32.93,50-14.16,110.86l8.47-2.28s-8.22-67,9-100.75S730.8,1154.44,730.8,1154.44Z"/><path class="cls-6" d="M748.56,1397.28a149.37,149.37,0,0,0,149.37-149.36H599.2A149.36,149.36,0,0,0,748.56,1397.28Z"/><path class="cls-7" d="M785.31,1396.14A149.41,149.41,0,0,1,617.4,1247.92h37.11A149.39,149.39,0,0,0,785.31,1396.14Z"/><path class="cls-6" d="M900,1404.88H597.13a18.43,18.43,0,0,1,18.43-18.42h266A18.43,18.43,0,0,1,900,1404.88Z"/><rect class="cls-8" x="594.28" y="1247.92" width="307.04" height="4.58"/><path class="cls-9" d="M2226.11,1354.32s3.1,49.93,12.76,50.65c1.28.09,49,.09,49,.09l60.9-.35s-.4-14.67-18.2-17.78-47.6-15.61-58.38-39.14C2260.83,1323,2226.11,1354.32,2226.11,1354.32Z"/><path class="cls-10" d="M2193.61,763.87s28.75,16.35,36.8,16.35,39.64-6.11,48.45-1.61,24.74,22.6,27.74,28.52c5.37,10.63-21.66,5.94-34.43-3.12a8,8,0,0,0-6.38-1.32c-6.62,1.44-20.37,3.94-27,1.48-8.93-3.3-55.95-7-55.95-7Z"/><path class="cls-11" d="M1974.87,541.21S2004.68,753,2054,772c24.35,9.36,132,30.58,163.8,32.72,0,0,7.8-6.33,5.9-32.08,0,0-112.75-41.4-128.77-63.91-23.84-33.5,14.8-136.87-15.11-168.34S1999.55,495.41,1974.87,541.21Z"/><path class="cls-3" d="M1984.92,987.49a370.54,370.54,0,0,0,29.11,41.65c32,40.44,66.9,73.78,73,105.3a141.06,141.06,0,0,0,5.63,20.17c2.54,7.22,5.67,14.81,9.29,22.66,13.59,29.53,33.92,62.61,54.22,92.69,35.08,52,68.07,95.37,68.07,95.37l60.51-2.58c-2.43-6.07-28.81-77.85-64.12-165.57-14.33-35.62-29.57-73.5-44.28-110q-2.94-7.32-5.86-14.56c-4.49-11.18-8.92-22.18-13.24-32.9l-59.55-148s-132.48-50.18-146.24-17.66C1940.1,900.89,1949.34,927.16,1984.92,987.49Z"/><path class="cls-9" d="M2086,1211.69s-42.08,27-38,35.83c.55,1.17,23.8,42.82,23.8,42.82l30,53s12.62-7.5,6.65-24.56-9.57-49.17,5.71-70C2130.25,1226.76,2086,1211.69,2086,1211.69Z"/><path class="cls-4" d="M2106.6,1259.22s-26.3-23.19-30.93-40.21c0,0,108.37-129.85,131.88-159,1.08-1.34.8-2.8-.62-4.41-17.75-20-214.94-60.69-240.71-100.79a124.29,124.29,0,0,1-16.65-38.39c-5.84-24.47-1.22-41.36-1.22-41.36l196.93-5.7s164,102.09,182.53,171.7S2106.6,1259.22,2106.6,1259.22Z"/><path class="cls-12" d="M2206.93,1055.65c-17.75-20-214.94-60.69-240.71-100.79a124.29,124.29,0,0,1-16.65-38.39V891.55l83.7-13.17s23.73,73,94,100.43C2193.14,1004.46,2205.61,1050,2206.93,1055.65Z"/><path class="cls-10" d="M2091.39,527.86c-39.84,10.3-105.88-26.61-105.88-26.61s25.64-17.24,35.15-55.1q.72-2.85,1.3-5.87l20.46-4.33,30.43,27.26s-.7,11.32-4.5,30.77q-1,5.1-2.29,10.92A93.92,93.92,0,0,1,2091.39,527.86Z"/><path class="cls-13" d="M1943.33,693c5.7,76.74-1.8,193.47,4.67,213.69,5.59,17.44,69.24,7.07,94.65,1.25,9.4-2.16,20.8-5.24,32.56-8.88,32.82-10.16,68.58-24.67,72.41-35.44a9,9,0,0,0,.36-1.24,9.94,9.94,0,0,0-.07-4.51c-1.28-5.49-6.21-11.44-6.79-25-.65-15.18-.55-33.05-1.12-52.27,0-2.17-.06-4.53-.3-6.68v-.79l0-1.23c-.55-21.44-1.67-44-3-66.32-.82-14-1.78-27.94-2.88-41.26-2.86-34.38-6.72-64.95-11.82-84.28-8.35-31.51-26.74-52.06-43.48-67.12L2066.4,502.5c-13.52,2.95-29.49,1-43.94-5.85-15.65-7.43-21-12.75-23.77-10.74C1962.57,513.78,1936.59,599.17,1943.33,693Z"/><path class="cls-11" d="M2075.21,899.06c32.82-10.16,68.58-24.67,72.41-35.44a9,9,0,0,0,.36-1.24c0-1.5,0-3-.07-4.51-1.28-5.49-6.21-11.44-6.79-25-.65-15.18-.55-33.05-1.12-52.27,0-2.17-.06-4.53-.3-6.68v-.79l0-1.23L2007,602.85S1917.82,788.55,2075.21,899.06Z"/><path class="cls-14" d="M2072.85,463.21s-.7,11.32-4.5,30.77c-29.72-9.6-43.19-36.44-47.69-47.83q.72-2.85,1.3-5.87l20.46-4.33Z"/><path class="cls-10" d="M2076.85,480.36S2012,469.55,2019.4,429.3s3.95-68.76,45.63-63.55,46.9,22,47.71,36.06S2093.89,482.14,2076.85,480.36Z"/><rect class="cls-15" x="2356.08" y="672.21" width="6.01" height="157.34" transform="translate(4370.69 2193.97) rotate(-162)"/><rect class="cls-15" x="2172.65" y="814.98" width="165.1" height="9.88" transform="translate(4492.39 1687.8) rotate(-178.78)"/><path class="cls-10" d="M2175.87,831s53,14,72.93,12.51,36.43-10.92,38.93-15.86,7.76-13.7-5.78-12.08-32,4.49-32.6,1.89,11-2.35,11-2.35,3.51-5.11-.91-5.29-17.31-3.69-22.1-1.29-9.21,11.23-12.7,10.86S2180.29,801,2180.29,801Z"/><path class="cls-13" d="M1988,549.9s6.26,213.82,53.22,238.12c23.17,12,127.8,45,159.2,50.58,0,0,8.45-5.43,9.4-31.23,0,0-107.5-53.58-120.94-77.72-20-35.93,29.8-134.4,3.54-169S2017.6,507.11,1988,549.9Z"/><path class="cls-16" d="M2020.66,446.15s-.75-13.81,7.77-21.72c0,0-3-13.84,2.51-16.13s6.62,9.36,9.13,7.54,13.7-10.5,18.49-23.28,48.66,2.69,53.77,5,21.55-6.15,24.74-13c0,0-9.13-7.31-13.24-12.78s-32.86-42.45-73-32-45.65,29.67-43.36,46.11S2004.2,440.64,2020.66,446.15Z"/><path class="cls-17" d="M802.52,528.24l34.57-3.3a6.34,6.34,0,0,1,6.47,3.88l26.1,62.83a6.34,6.34,0,0,1-5.26,8.75l-36,3.44a6.34,6.34,0,0,1-6.51-4l-24.71-63A6.35,6.35,0,0,1,802.52,528.24Z"/><path class="cls-16" d="M1240.91,1358.41l-18.35,9.74s-99.19-105.18-123-206.12c-4.26-18-6-35.79-4.16-52.66,0,0-1.44-4.57-4-12.65-.11-.35-.23-.72-.34-1.08-1.1-3.55-2.43-7.72-3.9-12.44-4.79-15.25-11.37-36.13-18.86-59.89-17.27-54.68-56.76-178-73.63-229.31L1116,750.12s13.77,31.42,33.57,116.8c3,11.15,6.1,23.47,9,36.89,3.24,15.21,6.26,31.84,8.77,49.81a765.84,765.84,0,0,1,7.27,102.23q.1,22.92-1.21,47.47c-.67,12,1.11,28,4.46,46.12C1193,1232.51,1240.91,1358.41,1240.91,1358.41Z"/><path class="cls-17" d="M1307.31,1404.88h-98s-3.67-15.63,2.77-26.28c5.7-9.41,3.51-14.78-.71-22.57a38,38,0,0,0,16.52,3.11c4.88-.28,10.05-2.49,14.58-5.13,4.22,4.82,22.29,25.3,27.94,29.35C1276.77,1388,1305.34,1386.33,1307.31,1404.88Z"/><path class="cls-17" d="M1167.24,953.62l-76.18,142c-1.1-3.55-2.43-7.72-3.9-12.44-4.79-15.25-11.37-36.13-18.86-59.89-17.27-54.68-56.76-178-73.63-229.31L1116,750.12s13.77,31.42,33.57,116.8c3,11.15,6.1,23.47,9,36.89C1161.71,919,1164.73,935.65,1167.24,953.62Z"/><path class="cls-18" d="M837,640.42c-.61.52-29.67-29.19-45.19-45.65l15.54-9.46,84.88,53.28Z"/><path class="cls-17" d="M992.69,1374.19s-2.28,16.65,4.11,30.69h40.63s.3-12.12-10-27.34S992.69,1374.19,992.69,1374.19Z"/><path class="cls-19" d="M1072.75,290.38c.55-2.6,7.47-30.41,50.63-24.42,0,0-21.53-1.16-26.79,7.48,0,0,16.36-9,27.41-3.23s14.36,27.41,13.26,34.16-11.39,27.35-19.13,27.91a22.92,22.92,0,0,1-9-1.56,102.64,102.64,0,0,1,4,11.29c11,38.12-12.63,69.39-26.46,63.07-8.87-4.05-14.26,11.35-14.26,11.35l-77.58-88.81S1039.92,264.76,1072.75,290.38Z"/><path class="cls-18" d="M993.36,528.55c10.12,7,22.81,12.81,38.74,16.49,59.71,13.79,82.59-36.67,91.19-71.32a51.38,51.38,0,0,0-20.23-6.21c-4.32-.51-8.86-.85-12.62-1-6.7-5.13-16.69-26.15-18.9-58.78l-2.81.75-47.06,12.88s2.15,15,3.21,29.1c.82,11.06.95,21.64-1.15,24.22-3.67.8-5.88,1.32-5.88,1.32a.06.06,0,0,1,0,0A302.84,302.84,0,0,0,993.36,528.55Z"/><path class="cls-20" d="M1021.67,421.33s2.16,14.95,3.21,29.1c26.66-2.67,39-28.06,43.85-42Z"/><path class="cls-18" d="M1013.71,435.37s63.28-3.49,60.5-42.87,3.51-66.34-37-65.78-47.3,16.15-49.57,29.51S997.17,435.26,1013.71,435.37Z"/><path class="cls-19" d="M987.94,334.21c8.92-12.55,16.49-10.48,20.88-7.21,33.19-21.47,57.46,5,57.46,5,6.26,27.95,27.79,42.67,27.79,42.67s-11,7.94-38.06,3c-8.26-1.51-15.92-6.75-22.58-13.3a147.88,147.88,0,0,0,27.6,29.17c-32.77-12.39-48.68-55.6-50.28-60.17-3.61,3.74-10.68,11.81-12.47,19.36-2.43,10.25-2.37,31-8.43,30.72C989.85,383.48,974.56,353,987.94,334.21Z"/><path class="cls-18" d="M1003.46,472.79s103.1-25,147.92,11.95L1129,797.16l-201.62-48.7s5.67-19.77,44.33-72.34S993.54,546.43,1003.46,472.79Z"/><path class="cls-16" d="M1063.56,762.39s-.12,1.06-.33,3.07c-.09.87-.21,1.92-.33,3.14-.87,8.1-2.51,23.64-4.63,43.84-5.53,53-14.22,138.09-20.13,205.27-4.63,52.52-7.57,94.09-6,100.76,4.77,20.08,0,260.19,0,260.19-17.14,8.21-43.12,0-43.12,0s-45.65-216.37-39.26-246.44-4.27-55.75-4.27-55.75C910.07,911.42,914,820,921,776.15a185.5,185.5,0,0,1,6.06-26.74,56.92,56.92,0,0,1,2.43-6.57C1007.66,721.81,1063.56,762.39,1063.56,762.39Z"/><path class="cls-17" d="M1129,797.16a198.63,198.63,0,0,1-70.71,15.28,236.78,236.78,0,0,1-58.19-5.52C961.41,798.51,932,783,921,776.15a185.5,185.5,0,0,1,6.06-26.74c23.8-16.94,82.65-.73,130.73,17.25l5.12,1.94C1099.72,782.68,1129,797.16,1129,797.16Z"/><path class="cls-13" d="M1165.28,573.85c-5,37.58-24.88,83.58-32,108.34,0,0,11.88,85.95.53,109.55-1.28,2.69-2.88,4.57-4.84,5.42-42,18.31-205.76.53-212.67-52.28-2.52-19.19,62.36-86.7,66.14-94.88,1.57-3.39,3.24-14.37-4.36-37.13-10.79,33.24-30.7,71.62-50.73,78.16-22,7.2-109-57.65-109-57.65s-.5-7.88,10.5-15.33c7.07-4.79,23.32-6.41,23.32-6.41l55.66,24.91c7-11.95,24.38-94.63,43.81-131.95,14.61-28.05,53.61-32.12,53.61-32.12s16.23,25.75,55.49,22.1,46.43-27.68,46.43-27.68,34.82,4.62,45.54,13.28C1154.54,481.68,1171.81,524.6,1165.28,573.85Z"/><path class="cls-11" d="M1133.29,682.19s11.88,85.95.53,109.55c-30.63-15.38-70.55-48.56-58.4-100.42,17.65-75.33,89.86-117.47,89.86-117.47C1160.31,611.43,1140.4,657.43,1133.29,682.19Z"/><path class="cls-18" d="M1107.14,624.41s-43.6,6.32-47.08,9.57-15.51,22.17-14,28.75,1.33,13.36,4,12.89,11.38-17.19,14.67-18,6-3,6.4-1.56-6.69,8.5-6.34,10.5,5.93-.34,8.44-4.22,8.77-5.8,9.71-8.22,5.26-10.42,11.13-10S1107.14,624.41,1107.14,624.41Z"/><polygon class="cls-18" points="1149.57 622.69 1107.14 624.41 1092.63 644.2 1150.33 646.13 1149.57 622.69"/><path class="cls-13" d="M1107.14,466.9s50.57,6,64.49,27.68c17.6,27.41,79.79,118.33,78.45,145.85,0,0-38.74,15.43-142.9,7.16,0,0-1.89-15.76,20-28.4,0,0,55.92-7.65,62.08-13.08L1147.76,562Z"/><path class="cls-16" d="M795,528.92l34.57-3.3A6.37,6.37,0,0,1,836,529.5l26.1,62.84a6.35,6.35,0,0,1-5.26,8.75l-36,3.43a6.36,6.36,0,0,1-6.52-4l-24.7-63A6.35,6.35,0,0,1,795,528.92Z"/><path class="cls-18" d="M791.85,594.77s-9.13-15.75-8.45-19.63,10.13-21.87,15-23.66c8.67-3.19,20.84-5.17,17.5,4-2.21,6-11,14.76-9.44,17.5s.94,12.37.94,12.37Z"/><path class="cls-21" d="M2169.78,1273.88c-12.38,79.39-93.4,129.95-176.49,129.95H1828.7l12.87-462.74s157-50.4,196.48-2.45c34.55,42,128.26,208.28,133.19,306.69A138.94,138.94,0,0,1,2169.78,1273.88Z"/><path class="cls-22" d="M1732.88,990.09s222-113.32,264.08-39.29c22.33,39.3,83.78,196.12,88.31,294.53,4.41,95.62-78.43,158.49-163.65,158.49H1770.27Z"/><path class="cls-6" d="M1774.63,1053c-1.87,9.63-19.85,18.57-46.53,26.47q-7,2.1-14.87,4.09c-90.79,23.19-251.6,36.14-266.93,29.3-21.18-9.45-151.18-471.34-151.18-471.34s124.09-4.67,222.64-6.94c33.72-.77,64.44-1.26,86.19-1.19a53.47,53.47,0,0,1,7.47.51,35.55,35.55,0,0,1,21.93,11.22c15.87,17.06,19.8,50.74,34.49,88,14.53,36.81,32.36,82.75,49.26,128.34,4.36,11.75,8.66,23.47,12.82,35q1.77,4.89,3.5,9.72C1758.41,976,1777.65,1037.35,1774.63,1053Z"/><path class="cls-23" d="M2169.78,1273.88c-12.38,79.39-93.4,129.95-176.49,129.95h-80.74C1966.39,1367.34,2015.07,1254.88,2169.78,1273.88Z"/><path class="cls-24" d="M1733.42,906.12c-4.13-.68-9.45-1.55-15.49-2.58a14.12,14.12,0,0,1-2.84-3.87c-2.43-5.34-.77-20.69,2-38.29-16.9-45.59-34.73-91.53-49.26-128.34-14.69-37.23-18.62-70.91-34.49-88a35.55,35.55,0,0,0-21.93-11.22c-13.1.19-26.93.42-41.2.68-5.07,10.05-13.8,19.54-28.89,27.48-67.33,35.44-17.39,108.47-17.39,108.47.49.33,26.73,52.48,26.73,52.48-.09-3.64,3.44-10.16,9.49-18.46,4.47,31.18,11.73,63,20.41,85.8-4.75,24.07-17,59.93-23.5,87.36-5.23,21.87-6.84,38.36,1.79,39.17a20.2,20.2,0,0,0,3.21,0,44.52,44.52,0,0,0,5.26,24c16.87,32.62,98,38.49,160.77,38.61,26.68-7.9,44.66-16.84,46.53-26.47C1777.65,1037.35,1758.41,976,1733.42,906.12Z"/><path class="cls-25" d="M2040.18,1332.73c-31.77,44.14-80.5,72.43-134.78,71.55l-233.37.12-111.81.06L1686,990.16s318.39-31.68,357.65,10.56c18.23,19.61,28.47,108.42,34.2,197.94C2081.1,1249.14,2066.41,1296.33,2040.18,1332.73Z"/><path class="cls-22" d="M2040.18,1332.73c-31.77,44.14-80.5,72.43-134.78,71.55l-233.37.12c27.46-23.05,113.83-88.46,206.3-85.37C1948.42,1321.38,2004.09,1320.38,2040.18,1332.73Z"/><path class="cls-26" d="M1753.29,700.18s19.39,28.69,30.45,89c9.68,52.83,18.18,72.33,32.16,83.16s91.92,42.82,91.92,42.82L1902,928.82s-114.22-15.55-127-34.64-61.74-131.88-58-157.86S1753.29,700.18,1753.29,700.18Z"/><path class="cls-18" d="M2033,1330.29c-1,11.14,14.48,13.85,32.45,14.74s12.53,4.58,37.15,9,34.48-2.27,36.26-5.6c1.59-3-9.86-7.57-22.06-12.78-1.53-.65-3.07-1.32-4.6-2-13.73-6-21.43-18.34-32.14-29.76-10.13-10.81-19.76-45.42-19.76-45.42l-33.45-7.15s9.39,31.16,12.65,44.46c1.92,7.82-.91,16.57-3.42,23.23A43.94,43.94,0,0,0,2033,1330.29Z"/><path class="cls-27" d="M2065.44,1345c18,.9,12.53,4.58,37.15,9s34.48-2.27,36.26-5.6c1.59-3-9.86-7.57-22.06-12.78l-.19.21a70.13,70.13,0,0,1-37.28.44c-16.29-4.42-32-14.15-43.25-17.29a43.94,43.94,0,0,0-3.08,11.25C2032,1341.43,2047.47,1344.14,2065.44,1345Z"/><path class="cls-9" d="M1699.89,933.62s222.28-16.73,264.13,9.68,109,334,109,334-4.14,3.32-13.4,4.32c-8.6.93-27.55-4.13-27.55-4.13s-96.45-137.64-103.25-172.32-5.13-65.62-20.6-66.44-208.32,23.44-237.5-27.95-5-102.26-5-102.26Z"/><path class="cls-18" d="M1947.94,1366c-1,11.14,14.48,13.85,32.44,14.75s12.53,4.57,37.15,9,34.48-2.28,36.26-5.61c1.59-3-9.86-7.56-22-12.78-1.54-.65-3.07-1.32-4.61-2-13.73-6-21.43-18.35-32.13-29.76-10.14-10.81-19.76-45.43-19.76-45.43l-33.45-7.14s9.39,31.15,12.65,44.45c1.92,7.82-.91,16.57-3.43,23.23A43.63,43.63,0,0,0,1947.94,1366Z"/><path class="cls-27" d="M1980.38,1380.74c18,.89,12.53,4.57,37.15,9s34.48-2.28,36.26-5.61c1.59-3-9.86-7.56-22-12.78l-.19.21a70,70,0,0,1-37.29.44c-16.28-4.42-32-14.15-43.25-17.29a43.63,43.63,0,0,0-3.07,11.25C1946.91,1377.13,1962.42,1379.84,1980.38,1380.74Z"/><path class="cls-28" d="M1656.35,947.39s197.46,9.35,238.25,37.37,95.88,338,95.88,338-4.27,3.15-13.55,3.79c-8.64.6-27.38-5.2-27.38-5.2s-91-141.29-96.46-176.2-2.58-65.77-18-67.2-209.08,15.32-236.23-37.17S1656.35,947.39,1656.35,947.39Z"/><path class="cls-29" d="M1726.71,512.87c-8.76-5.79-19.64-7.08-27.3-7.14,2.1-1.9,6-2.38,6-2.38-4.69-1-15.57,3-15.57,3-64.16-29.76-81,66.51-81.09,89.13S1607.08,644,1572.86,662c-67.33,35.44-17.38,108.47-17.38,108.47.49.34,26.73,52.48,26.73,52.48-.45-18.31,89.94-108.77,135.68-134.62,11.71-15,17.35-42.48,17.78-44.64-3.3,21.87-7.89,34-11.72,40.68C1763.33,652.7,1749.94,528.19,1726.71,512.87Z"/><path class="cls-18" d="M1648.05,667.13s17.44.76,35.82,2.5c12.5,1.19,25.83,2.57,32.87,5.51,17.4,7.27,15.58,38.09-20.94,32.38S1645.49,676.27,1648.05,667.13Z"/><path class="cls-18" d="M1715.2,689.6c.21.11,5.21,26.51-18.7,25.45-15.7-.69-49.55-19.68-46.56-33.12,1.42-6.39,13.28-23,15.67-60.8l2.85.76,48,12.89s-2.13,15.25-3.13,29.68C1712.54,676.58,1712.51,688.12,1715.2,689.6Z"/><path class="cls-26" d="M1716.51,634.78s-2.13,15.25-3.13,29.68c-27.19-2.58-39.93-28.4-44.92-42.57Z"/><path class="cls-29" d="M1663.79,616.26s-12.78-23.51-14.92-43c-1.52-13.94,8.89-64.52,59.7-53.75a70,70,0,0,1,28.18,12.86c10.63,8.26,25.62,25.58,4.68,68.92L1735.76,616Z"/><path class="cls-18" d="M1724.69,649.05s-64.53-3.23-61.89-43.39-3.93-67.61,37.39-67.25,48.3,16.22,50.68,29.84S1741.55,648.86,1724.69,649.05Z"/><path class="cls-29" d="M1729.61,539.39s-20.79,45.93-48.34,51.09-38.81-2.88-38.81-2.88,21.87-15.12,28.1-43.64C1670.56,544,1717.79,516.08,1729.61,539.39Z"/><path class="cls-29" d="M1725,542.92s12.48,11.4,15,21.84,2.58,31.58,8.76,31.27c0,0,15.43-31.13,1.69-50.24C1735.88,525.53,1725,542.92,1725,542.92Z"/><path class="cls-28" d="M1789.26,937c-5.22,6.25-21.53,8.16-39,11-13.72,2.26-28.12,5.1-38.36,11.12-23.27,13.66-99.27,59.82-121.54,57.72-8.64-.82-7-17.3-1.79-39.18,8.23-34.54,25.47-82.52,25.47-103.38,0-11.38,3.79-38.32,8.84-69.13q.61-3.72,1.25-7.51c10-59.89,23.87-130.5,23.87-130.5s15.46,33.72,45.57,33.72,23.12-25.72,23.12-25.72,27.48,3.23,34,10.23,23,37.22,26.23,45.46c0,0,.66,10.49-25.31,15.48,0,0,6.33,28.48,7.08,47.46.55,14-9.57,57.91-12.48,85.2-1,9.67-1.17,17.26.4,20.7,2,4.41,8.51,8.8,15.9,13.11C1777.21,921.32,1795.46,929.55,1789.26,937Z"/><path class="cls-9" d="M1762.53,912.78c16.67,28.42-45.21,37-55.45,43-23.26,13.66-94.4,63.18-116.67,61.08-8.64-.82-7-17.3-1.79-39.18,8.23-34.54,25.47-82.52,25.47-103.38,0-11.38,3.79-38.32,8.84-69.13l26.82-25.74s28.73,74.26,56.12,86.43A229.86,229.86,0,0,0,1746.23,879c-1,9.67-1.17,17.26.4,20.7C1748.64,904.08,1755.14,908.47,1762.53,912.78Z"/><path class="cls-18" d="M1639.81,689.36s-22.93-13.92-45.09,12.49,15.75,215.2,48.6,224.9c36.48,10.78,141.87-1.72,141.87-1.72l-2-16.47S1671,887.05,1666.3,881.05,1651.46,692.41,1639.81,689.36Z"/><path class="cls-28" d="M1648.05,667.13s-47.08,4.25-60.75,19.73-17.67,57.45-17.67,57.45,41.46,33.47,91.41,20.48Z"/><rect class="cls-30" x="1796.19" y="933.85" width="62.19" height="7.35"/><path class="cls-30" d="M1845.17,940.19c.61-2.43,57.17-91.24,57.17-91.24h125.85l-63.13,88.86Z"/><path class="cls-29" d="M1850.47,941.2c.61-2.43,57.35-92.25,57.35-92.25h120.37l-60.06,92.25Z"/><path class="cls-30" d="M1956.58,895.37c-1.24,3.6-5.16,6.52-8.76,6.52s-5.51-2.92-4.27-6.52,5.16-6.51,8.76-6.51S1957.82,891.77,1956.58,895.37Z"/><path class="cls-18" d="M1774,907.58s36.53-7.07,40.66-5.3,27.1,22.39,24.74,26.51-11.78,7.07-22.39,3.54-33.58-5.31-37.7-10.61S1774,907.58,1774,907.58Z"/><path class="cls-21" d="M1846.79,1278c-13.34,77-86.58,125.8-161.65,125.8H1533.79l11.84-462.74s144.41-50.4,180.68-2.45c31.77,42,118,208.28,122.48,306.69A149.09,149.09,0,0,1,1846.79,1278Z"/><path class="cls-23" d="M1846.79,1278c-13.34,77-86.58,125.8-161.65,125.8H1564C1620.72,1365.4,1697.05,1259.23,1846.79,1278Z"/><path class="cls-25" d="M1612.16,1403.49l-3.39.22c-2.4.12-4.8.21-7.21.24l-2.4,0H1447.81v-.07l-8.74.11c-15.59.19-31.86.37-47,.5l-7.48.07h-2.72c-14.92.1-28.11.15-37.52.08a250.06,250.06,0,0,1-37.43-2.88,167.15,167.15,0,0,1-41.71-11.93,136.44,136.44,0,0,1-13.27-6.74,130.12,130.12,0,0,1-16.41-11.19c-13.43-10.73-25-24.3-34.92-41a223.73,223.73,0,0,1-18.14-39.54c-6.58-18.52-11.86-39.6-15.92-63.44-5.82-34-9.14-73.65-10.15-119.46q-.6-27.67-.09-58.39.81-49.11,4.38-106.35c3.33-53.65,8.41-112.84,15.13-178,6.13-59.5,13.19-101.09,23.47-110.57,15.17-14,46.79-19.6,68.79-21.85h0c13.66-1.4,23.58-1.51,23.58-1.51,26.88,0,50.77,19.3,59.4,48,17.56,58.39,48.92,162.79,81.56,272,.16.54.33,1.09.49,1.64l5.63,18.86.87,2.88,5.72-2.55a.61.61,0,0,1,.2-.09c7.82-3.47,16.68-7.27,26.24-11.14h0q7.44-3,15.39-6.07c14.93-5.73,31.06-11.39,47.4-16.26,7.25-2.17,14.55-4.19,21.81-6,9.32-2.31,18.57-4.26,27.58-5.72l.78-.12c1.07-.18,2.13-.33,3.19-.49,38.86-5.7,72.59-1.74,86.54,22.87,22.33,39.42,83.77,196.69,88.3,295.39C1767,1336,1692.59,1397.45,1612.16,1403.49Z"/><path class="cls-21" d="M1369.37,993.66s-77.68-316.49-83.29-343.09c-2.5-11.85-10.2-16.14-17.95-17.24,13.65-1.39,23.58-1.5,23.58-1.5,26.88,0,50.77,19.24,59.4,47.83,18.81,62.37,53.45,177.37,88.55,294.51C1437.88,974.12,1369.37,993.66,1369.37,993.66Z"/><path class="cls-22" d="M1655.6,1145.85c-20.79-34.36-3.33-40.81-6.52-117.79s-39-70.61-53.9-85.5c-2.72-2.73-5-8.32-7.21-15.81-1.06.16-2.12.31-3.19.49l-.78.12c-9,1.46-18.26,3.41-27.58,5.72-7.26,1.79-14.56,3.81-21.81,6-16.34,4.87-32.47,10.53-47.4,16.26q-7.95,3-15.39,6.07C1459,1042.14,1439.06,1404,1439.06,1404l.48.5c16.25-.14,33.82-.34,50.52-.54l7.1-.09v.07h114.22l.46-.27.31-.19c30.68-19,23.83-57.2,16.61-81.13-2.91-25.58-14.22-55.56-23.46-83.42,2.87-8.48,6.9-13.33,24.18-19.71,19.2-7.07,24.24-37.29,24.24-37.29,5.13,13.51-6.6,32.16-6.91,32.65C1647.48,1213.81,1676.16,1179.81,1655.6,1145.85Z"/><g id="girl_2" data-name="girl 2"><path class="cls-20" d="M1400.44,989.86s-115.23,50.2-136.14,49.28-149.8-39.25-149.8-39.25l3.28,22.17s99.46,57.2,134.23,60.45c34.24,3.19,151.3-30.73,162.6-37.89S1433.28,997.1,1400.44,989.86Z"/><path class="cls-17" d="M1417.75,805.18s42.51-8.08,63.68,7.38c38.35,28,40.41,124.56,54.78,138.94s49,8.25,52.11,82.67-13.8,80.64,6.3,113.87-8.5,66.47-8.5,66.47,11.71-18.34,6.69-31.58c0,0-4.87,29.22-23.43,36.06s-21.31,11.87-24.27,21.91c0,0-158.33-81.13-158.5-138.67s-31.16-114.55-15.95-139.48c0,0-6.77,10.66-7.6,22.53,0,0-9.13-17.49,6.69-33.78s-18.56-50-13.47-89C1359.78,835.7,1378.58,806.34,1417.75,805.18Z"/><path class="cls-18" d="M1386.43,1044.68c10.12,7,22.81,12.81,38.74,16.49,59.71,13.79,82.6-36.67,91.19-71.31a51.34,51.34,0,0,0-20.23-6.22c-4.31-.51-8.85-.85-12.61-1-6.71-5.14-16.7-26.16-18.91-58.79l-2.81.75-47.06,12.88s2.16,15,3.22,29.1c.81,11.07.94,21.64-1.15,24.23-3.68.79-5.88,1.31-5.88,1.31a.1.1,0,0,1,0,0A302.14,302.14,0,0,0,1386.43,1044.68Z"/><path class="cls-20" d="M1414.74,937.46s2.17,14.95,3.21,29.1c26.66-2.67,39-28,43.85-42Z"/><path class="cls-18" d="M1406.78,951.5s63.28-3.49,60.5-42.86,3.52-66.35-37-65.78S1383,859,1380.7,872.37,1390.25,951.4,1406.78,951.5Z"/><path class="cls-17" d="M1381,850.34c8.92-12.54,16.49-10.47,20.89-7.21,33.18-21.47,57.46,5,57.46,5,6.25,28,27.79,42.67,27.79,42.67s-11,7.94-38.06,3c-8.27-1.5-15.92-6.75-22.58-13.3a148.11,148.11,0,0,0,27.6,29.18c-32.78-12.39-48.68-55.6-50.29-60.18-3.61,3.74-10.67,11.82-12.46,19.36-2.43,10.25-12.92,26.28-19,26C1372.37,894.9,1367.63,869.15,1381,850.34Z"/><path class="cls-29" d="M1534.39,1173.35c5.71-29.22,24.34-145.94,5.71-183.5-6.69-13.49-32.95-14.71-61.76-13.52-9,5.79-43.13,27.66-57.16,24.93l-.78-.19c-6.61-1.65-9.11-6.29-3.59-10.29a125.55,125.55,0,0,0-32,2c-10,1.88-37,15.85-37,15.85s13.6,24.56,33.64,33c-3.41,30.49,1.66,43.94,33.3,114.37,26.73,59.53-3.61,113.13-3.61,113.13s157.35,126.52,158.23,62.1C1570,1282.73,1527.08,1210.69,1534.39,1173.35Z"/><path class="cls-31" d="M1403.34,1406.7a29.29,29.29,0,0,1-21-12.81q-1.14-1.71-2.43-3.67c-17.91-27.11-24.88-110.15-65.17-198.61-9.81-21.54-45-25.41-54.64-49.76,0,0-23.64-78.91,45.25-81.24s184.5,219.57,186.32,242.84C1493.39,1326,1537.17,1421.8,1403.34,1406.7Z"/><path class="cls-30" d="M1129.53,1404.88h98s3.67-15.63-2.77-26.28c-5.7-9.41-3.52-14.78.7-22.57a37.92,37.92,0,0,1-16.51,3.11c-4.88-.28-10-2.49-14.58-5.13-4.22,4.82-22.29,25.3-27.94,29.35C1160.07,1388,1131.5,1386.33,1129.53,1404.88Z"/><path class="cls-30" d="M1524.05,1020.45s12.76,116.11-70,140.44-106.26-106.83-39.44-116.27S1524.05,1020.45,1524.05,1020.45Z"/><path class="cls-11" d="M1257.81,1083.42c-5.91,44.26-29,184-69.64,252.14-13.11,22,33,34.29,33.29,34.23,6.19-1.62,16.5-11.49,21.25-15.78,33-29.75,100-114,100-181.58,0-32.94.58-95.85-23.37-111.84C1304.64,1050.75,1260.15,1065.84,1257.81,1083.42Z"/><path class="cls-13" d="M1461.81,1404.88s-3.64-5.05-10-14.66c-7.54-11.42-15.89-33.89-26-62.71-10.64-30.24-23.25-67.45-39-106.17-4.87-11.95-10-24-15.53-36.13-9.81-21.53-36.81-18.56-46.41-42.9,0,0-37.48-84.4,31.41-86.73s199.8,225.78,207.32,247.87C1571.83,1327.63,1612,1428.06,1461.81,1404.88Z"/><path class="cls-29" d="M1201.51,1404.88h98s3.66-15.63-2.77-26.28c-5.7-9.41-3.52-14.78.7-22.57a38,38,0,0,1-16.51,3.11c-4.89-.28-10-2.49-14.58-5.13-4.22,4.82-22.29,25.3-27.94,29.35C1232.05,1388,1203.48,1386.33,1201.51,1404.88Z"/><path class="cls-11" d="M1425.83,1327.51c-10.64-30.24-23.25-67.45-39-106.17,4.12-29.33,13-55,27.94-65.34C1414.75,1156,1451,1268.25,1425.83,1327.51Z"/><path class="cls-13" d="M1315,1080.28c-5.9,44.27-14.22,187.11-54.89,255.28-13.11,22,33,34.29,33.29,34.23,6.19-1.62,16.5-11.49,21.25-15.78,33-29.75,100-114,100-181.58,0-32.94-38.66-93.21-62.61-109.2C1337.38,1053.39,1317.39,1062.7,1315,1080.28Z"/><path class="cls-30" d="M1102.79,942.85l100.42-10.67a6.49,6.49,0,0,1,6.74,4.14l35.93,94.41a6.49,6.49,0,0,1-5.8,8.78l-99.64,4a6.48,6.48,0,0,1-6.24-4l-36.7-87.76A6.47,6.47,0,0,1,1102.79,942.85Z"/><path class="cls-29" d="M1094.07,943.76l100.41-10.67a6.49,6.49,0,0,1,6.75,4.14l35.92,94.41a6.48,6.48,0,0,1-5.79,8.78l-99.64,4a6.47,6.47,0,0,1-6.24-4l-36.71-87.75A6.48,6.48,0,0,1,1094.07,943.76Z"/><path class="cls-30" d="M1149.73,987.84c-1.23-3.37.51-6.1,3.88-6.1s7.09,2.73,8.32,6.1-.51,6.1-3.88,6.1S1151,991.21,1149.73,987.84Z"/><path class="cls-30" d="M1097.07,952.68c-.6-1.66.25-3,1.91-3a4.73,4.73,0,0,1,4.09,3c.6,1.66-.25,3-1.91,3A4.75,4.75,0,0,1,1097.07,952.68Z"/><path class="cls-18" d="M1516.36,989.86s-139.17,51.25-160.08,50.2c-13.52-.68-125.86-40.17-125.86-40.17L1220.34,1019s109.34,70.28,139.4,69.93c59.35-.69,159.49-37.12,170.8-44.28S1549.2,997.1,1516.36,989.86Z"/><path class="cls-18" d="M1230.42,999.89s-10.08-15.52-20.13-16-27.39,6.85-33.32,8-22.82,6.62-17.8,14.84,28.3,10,38.34,8.21,22.83,4,22.83,4Z"/><path class="cls-18" d="M1213,984.39s-16-7.33-20.54-8.69-3.65,0-2.28,4.34,9.58,8.46,9.58,9.82S1213,984.39,1213,984.39Z"/><path class="cls-18" d="M1104.41,991.67s10.07-15.93,13.37-16.58c10-2,10,11.24,7.91,19.78-2.28,9.15-10,17.79-12.16,17S1102,1000.09,1104.41,991.67Z"/><path class="cls-18" d="M1104,994.87s-3.22,17.86,13.75,27.19Z"/><path class="cls-1" d="M1394.93,928.86s6-2.37,22.82-1c0,0-.89,6.56-13.31,7.21C1397.41,935.44,1394.93,928.86,1394.93,928.86Z"/><path class="cls-29" d="M1444.66,1015.13s12.45,39.41,55.19,48.37c0,0,70.6-21.75,35.45-69.84C1535.3,993.66,1500.55,967.84,1444.66,1015.13Z"/></g><rect class="cls-32" x="139.5" y="1404.88" width="2791.06" height="7.4" rx="3.16"/></svg>